# xmcd CD database file
#
# Track frame offsets:
#	150
#	10528
#	22467
#	32677
#	45659
#	60210
#	72385
#	83946
#	95460
#	109767
#	119697
#	128722
#	139426
#	154407
#	168299
#	180900
#	193153
#	203391
#	215720
#	225007
#
# Disc length: 3121 seconds
#
# Revision: 0
# Processed by: cddbd v1.4PL0 Copyright (c) Steve Scherf et al.
# Submitted via: CDex 1.51
#
DISCID=0f0c2f14
DTITLE=Art Tatum - Masters of Jazz - Art Tatum [CD 1)
DYEAR=1999
DGENRE=Jazz
TTITLE0=Tiger Rag
TTITLE1=(I would do) anything for you
TTITLE2=I wish I were twins
TTITLE3=Gone with the wind
TTITLE4=Stormy weather
TTITLE5=The Sheik of Araby
TTITLE6=Royal Garden Blues
TTITLE7=Tea for two
TTITLE8=Deep purple
TTITLE9=Hallelujah
TTITLE10=All God's chillun got rythm
TTITLE11=Humoresque
TTITLE12=Elegie
TTITLE13=Sweet Lorraine
TTITLE14=Get happy
TTITLE15=St. Louis Blues
TTITLE16=Caravan
TTITLE17=All the things you are
TTITLE18=I got rythm
TTITLE19=It had to be you
EXTD=YEAR: 1999
EXTT0=
EXTT1=
EXTT2=
EXTT3=
EXTT4=
EXTT5=
EXTT6=
EXTT7=
EXTT8=
EXTT9=
EXTT10=
EXTT11=
EXTT12=
EXTT13=
EXTT14=
EXTT15=
EXTT16=
EXTT17=
EXTT18=
EXTT19=
PLAYORDER=
